# xmcd
#
# Track frame offsets:
#	150
#	17326
#	41668
#	80783
#
# Disc length: 1200 seconds
#
# Revision: 1
# Processed by: cddbd v1.5.1PL0 Copyright (c) Steve Scherf et al.
# Submitted via: audiograbber 1.83.01
#
DISCID=2604ae04
DTITLE=Oomph! feat. L'âme Immortelle - Brennende Liebe
DYEAR=2004
DGENRE=Rock
TTITLE0=Brennende Liebe
TTITLE1=Brennende Liebe (transporterraum remix)
TTITLE2=Brennende Liebe (hot love mix)
TTITLE3=Daten-CD
EXTD=
EXTT0=
EXTT1=
EXTT2=
EXTT3=
PLAYORDER=
